<svg width="48" height="48" viewBox="0 0 48 48" fill="none" xmlns="http://www.w3.org/2000/svg">
<path d="M20 36C22.2091 36 24 34.2091 24 32V28H20C17.7909 28 16 29.7909 16 32C16 34.2091 17.7909 36 20 36Z" fill="#0ACF83"/>
<path d="M16 24C16 21.7909 17.7909 20 20 20H24V28H20C17.7909 28 16 26.2091 16 24Z" fill="#A259FF"/>
<path d="M16 16C16 13.7909 17.7909 12 20 12H24V20H20C17.7909 20 16 18.2091 16 16Z" fill="#F24E1E"/>
<path d="M24 12H28C30.2091 12 32 13.7909 32 16C32 18.2091 30.2091 20 28 20H24V12Z" fill="#FF7262"/>
<path d="M32 24C32 26.2091 30.2091 28 28 28C25.7909 28 24 26.2091 24 24C24 21.7909 25.7909 20 28 20C30.2091 20 32 21.7909 32 24Z" fill="#1ABCFE"/>
</svg>
