<svg width="164" height="48" viewBox="0 0 164 48" fill="none" xmlns="http://www.w3.org/2000/svg">
<g clip-path="url(#clip0)">
<path fill-rule="evenodd" clip-rule="evenodd" d="M49.7505 12.1817C49.7505 11.9733 49.8958 11.8425 50.0383 11.6917C50.1805 11.5413 50.4458 11.5146 50.6854 11.5146H54.1737C54.641 11.5146 54.634 11.6722 54.634 12.1817V32.6035H64.9297C65.1351 32.6035 65.2816 32.6299 65.4299 32.7744C65.5776 32.9196 65.6219 33.0675 65.6219 33.3106V36.4901C65.6219 36.9655 65.4314 37.2555 64.9297 37.2555H50.6512C50.1494 37.2555 49.7505 37.0002 49.7505 36.4901V12.1817Z" fill="white"/>
<path fill-rule="evenodd" clip-rule="evenodd" d="M72.0603 24.3795C72.0603 25.5499 72.2572 26.6471 72.6506 27.6721C73.044 28.6974 73.5934 29.5921 74.3006 30.3566C75.0072 31.1211 75.8453 31.7237 76.8144 32.1637C77.7832 32.6041 78.8493 32.824 80.0122 32.824C81.1635 32.824 82.2269 32.6041 83.2014 32.1637C84.1763 31.7237 85.0166 31.1211 85.7241 30.3566C86.4303 29.5921 86.9834 28.6974 87.3826 27.6721C87.7812 26.6471 87.9808 25.5499 87.9808 24.3795C87.9808 23.1982 87.7812 22.0919 87.3826 21.0607C86.9834 20.0299 86.4303 19.132 85.7241 18.3676C85.0166 17.6031 84.1763 16.998 83.2014 16.5518C82.2269 16.1061 81.1635 15.8828 80.0122 15.8828C78.8493 15.8828 77.7832 16.1061 76.8144 16.5518C75.8453 16.998 75.0072 17.6031 74.3006 18.3676C73.5934 19.132 73.044 20.0299 72.6506 21.0607C72.2572 22.0919 72.0603 23.1982 72.0603 24.3795ZM66.9814 24.3795C66.9814 23.152 67.1356 21.9732 67.4432 20.8437C67.7512 19.7142 68.1898 18.6541 68.76 17.6639C69.3301 16.6733 70.0111 15.773 70.8034 14.962C71.5961 14.151 72.4763 13.4591 73.4454 12.8854C74.4145 12.312 75.4549 11.8663 76.5666 11.5478C77.6779 11.2293 78.838 11.0696 80.0464 11.0696C81.2434 11.0696 82.4002 11.2293 83.5176 11.5478C84.6347 11.8663 85.678 12.312 86.647 12.8854C87.6158 13.4591 88.4994 14.151 89.2979 14.962C90.0954 15.773 90.777 16.6733 91.341 17.6639C91.9057 18.6541 92.3443 19.7142 92.658 20.8437C92.9715 21.9732 93.1284 23.152 93.1284 24.3795C93.1284 25.6073 92.9715 26.7861 92.658 27.9156C92.3443 29.0447 91.9057 30.0992 91.341 31.0777C90.777 32.0567 90.0954 32.9487 89.2979 33.7538C88.4994 34.5589 87.6158 35.2511 86.647 35.8301C85.678 36.4094 84.6347 36.8554 83.5176 37.1677C82.4002 37.4809 81.2434 37.6372 80.0464 37.6372C78.838 37.6372 77.6779 37.4809 76.5666 37.1677C75.4549 36.8554 74.4145 36.4094 73.4454 35.8301C72.4763 35.2511 71.5961 34.5589 70.8034 33.7538C70.0111 32.9487 69.3301 32.0567 68.76 31.0777C68.1898 30.0992 67.7512 29.0447 67.4432 27.9156C67.1356 26.7861 66.9814 25.6073 66.9814 24.3795Z" fill="white"/>
<path fill-rule="evenodd" clip-rule="evenodd" d="M101.028 27.0554C101.028 27.8664 101.273 28.6308 101.535 29.3488C101.798 30.0673 102.226 30.6957 102.704 31.2341C103.183 31.7728 103.785 32.1986 104.452 32.5112C105.118 32.8241 105.865 32.9804 106.663 32.9804C107.461 32.9804 108.198 32.8241 108.859 32.5112C109.521 32.1986 110.094 31.7728 110.573 31.2341C111.052 30.6957 111.391 30.0673 111.653 29.3488C111.915 28.6308 112.015 27.8664 112.015 27.0554V12.2165C112.015 12.0081 112.125 11.8599 112.279 11.7092C112.433 11.5588 112.657 11.5144 112.885 11.5144H116.271C116.476 11.5144 116.557 11.5529 116.739 11.6918C116.921 11.8307 116.899 11.9849 116.899 12.2165V27.0554C116.899 28.5148 116.739 29.8875 116.192 31.1733C115.645 32.4591 114.952 33.5858 114 34.5531C113.048 35.5204 111.968 36.2817 110.702 36.8375C109.437 37.3936 108.1 37.6717 106.663 37.6717C105.706 37.6717 104.789 37.5443 103.9 37.2894C103.011 37.0351 102.182 36.6759 101.407 36.2123C100.632 35.7493 99.9269 35.196 99.2884 34.5531C98.6499 33.9102 98.1036 33.195 97.6479 32.407C97.1916 31.6192 96.8045 30.7738 96.554 29.8701C96.3031 28.9667 96.144 28.0282 96.144 27.0554V12.2165C96.144 12.0426 96.2466 11.9033 96.3833 11.7352C96.5201 11.5674 96.7252 11.5144 96.9303 11.5144H100.47C100.63 11.5144 100.686 11.5588 100.869 11.7092C101.051 11.8599 101.028 12.0081 101.028 12.2165V27.0554Z" fill="white"/>
<path fill-rule="evenodd" clip-rule="evenodd" d="M126.666 16.1666V32.6035H130.024C131.164 32.6035 132.239 32.3576 133.248 31.9581C134.257 31.5584 135.137 30.9766 135.89 30.258C136.642 29.5401 137.238 28.6714 137.677 27.6749C138.115 26.6791 138.335 25.5785 138.335 24.3854C138.335 23.1923 138.115 22.0889 137.677 21.0809C137.238 20.0733 136.642 19.2031 135.89 18.4734C135.137 17.7436 134.257 17.1928 133.248 16.7813C132.239 16.3704 131.164 16.1666 130.024 16.1666H126.666ZM143.448 24.3795C143.448 25.6076 143.294 26.7746 142.986 27.8809C142.679 28.9871 142.24 30.018 141.67 30.9738C141.099 31.9293 140.418 32.7955 139.626 33.5714C138.834 34.3477 137.956 35.008 136.993 35.5522C136.029 36.0968 134.989 36.5168 133.872 36.812C132.754 37.1076 131.598 37.2555 130.4 37.2555H122.534C122.443 37.2555 122.352 37.2496 122.26 37.2378C122.169 37.2263 122.081 37.1975 121.996 37.151C121.91 37.1048 121.723 37.0353 121.672 36.9423C121.621 36.8498 121.477 36.7224 121.477 36.5599V12.2863C121.477 11.7069 121.987 11.5146 122.534 11.5146H130.4C131.598 11.5146 132.752 11.634 133.863 11.9352C134.975 12.2366 136.012 12.6407 136.975 13.1968C137.939 13.7529 138.819 14.4066 139.617 15.1829C140.416 15.9588 141.097 16.8216 141.661 17.783C142.226 18.7447 142.664 19.7781 142.978 20.8902C143.291 22.0023 143.448 23.1632 143.448 24.3795Z" fill="white"/>
<mask id="mask0" mask-type="alpha" maskUnits="userSpaceOnUse" x="144" y="11" width="21" height="27">
<path fill-rule="evenodd" clip-rule="evenodd" d="M164.351 37.585V11H144.797V37.585H164.351Z" fill="white"/>
</mask>
<g mask="url(#mask0)">
<path fill-rule="evenodd" clip-rule="evenodd" d="M160.52 18.3327C160.372 18.3327 160.235 18.2952 160.11 18.2198C159.984 18.1445 159.842 18.0434 159.682 17.9159L159.648 17.8985C159.432 17.6784 159.152 17.4352 158.81 17.1685C158.468 16.9021 158.086 16.6534 157.665 16.4214C157.243 16.1897 156.789 15.9928 156.305 15.8306C155.82 15.6687 155.327 15.5875 154.826 15.5875C154.187 15.5875 153.623 15.66 153.133 15.8045C152.642 15.9494 152.232 16.1463 151.902 16.3953C151.571 16.6447 151.32 16.9368 151.149 17.273C150.978 17.6089 150.892 17.9677 150.892 18.3501C150.892 18.7669 151.021 19.1319 151.278 19.4449C151.534 19.7575 151.881 20.0388 152.32 20.2875C152.759 20.5368 153.264 20.7626 153.834 20.9651C154.404 21.1679 155.002 21.3621 155.629 21.5472C156.701 21.8834 157.758 22.2568 158.802 22.668C159.844 23.0793 160.777 23.5801 161.597 24.1709C162.418 24.7617 163.082 25.4713 163.59 26.2994C164.097 27.1277 164.351 28.127 164.351 29.2968C164.351 30.5593 164.1 31.7006 163.598 32.7197C163.096 33.7391 162.404 34.6109 161.52 35.335C160.637 36.0589 159.599 36.6149 158.408 37.0029C157.217 37.3912 155.937 37.585 154.569 37.585C153.691 37.585 152.819 37.4808 151.953 37.2721C151.086 37.0637 150.254 36.7684 149.456 36.386C148.658 36.0037 147.75 35.5434 147.038 35.0047C146.325 34.466 145.59 33.8607 144.979 33.1889V33.2063L145.098 33.1368C144.846 32.8475 144.797 32.5807 144.797 32.3376C144.797 32.1059 144.972 31.8569 145.246 31.5902L145.504 31.3297L145.838 31.0171C146.009 30.8667 146.196 30.6986 146.39 30.5131C146.584 30.328 146.78 30.1599 146.974 30.0091C147.168 29.8587 147.349 29.7313 147.514 29.6271C147.679 29.5229 147.814 29.4704 147.917 29.4704C148.076 29.4704 148.225 29.5229 148.361 29.6271C148.498 29.7313 148.612 29.895 148.703 29.9877L148.772 30.1223H148.755C149.154 30.4325 149.602 30.8043 150.098 31.1517C150.594 31.4993 151.103 31.7766 151.628 32.0486C152.152 32.3209 152.674 32.5187 153.193 32.6753C153.711 32.8316 154.198 32.9017 154.655 32.9017C155.281 32.9017 155.869 32.8168 156.416 32.6546C156.963 32.4921 157.436 32.2613 157.835 31.9658C158.234 31.6705 158.548 31.3132 158.776 30.8964C159.004 30.4793 159.118 30.0157 159.118 29.5058C159.118 28.9963 158.969 28.5587 158.673 28.1936C158.377 27.8289 157.989 27.5101 157.51 27.2378C157.032 26.9658 156.493 26.7311 155.895 26.5341C155.296 26.3372 154.695 26.1517 154.091 25.9781C152.699 25.5498 151.483 25.0861 150.439 24.5881C149.397 24.09 148.527 23.5311 147.832 22.9112C147.136 22.2915 146.614 21.5965 146.267 20.8262C145.919 20.0558 145.745 19.1899 145.745 18.2285C145.745 17.1511 145.959 16.1693 146.386 15.2832C146.814 14.3972 147.421 13.6386 148.208 13.0072C148.994 12.3757 149.94 11.8839 151.046 11.5303C152.152 11.1771 153.389 11 154.757 11C155.795 11 156.849 11.1653 157.921 11.4953C158.992 11.8256 159.984 12.2802 160.896 12.8595C161.17 13.0332 161.449 13.2301 161.734 13.45C162.019 13.6705 162.281 13.8932 162.521 14.1193C162.76 14.3451 162.957 14.5653 163.111 14.7793C163.265 14.9939 163.342 15.1762 163.342 15.3266C163.342 15.4774 163.308 15.6194 163.239 15.7524C163.171 15.8858 163.039 16.0161 162.936 16.1435L162.377 16.6996V16.6819C162.072 16.8674 162.076 17.0587 161.893 17.2556C161.711 17.4526 161.551 17.629 161.369 17.7853C161.187 17.942 161.033 18.0722 160.885 18.1764C160.736 18.2806 160.623 18.3327 160.52 18.3327Z" fill="white"/>
</g>
<mask id="mask1" mask-type="alpha" maskUnits="userSpaceOnUse" x="0" y="11" width="36" height="27">
<path fill-rule="evenodd" clip-rule="evenodd" d="M0 11.2449V37.7204H35.4541V11.2449L0 11.2449L0 11.2449Z" fill="white"/>
</mask>
<g mask="url(#mask1)">
<path fill-rule="evenodd" clip-rule="evenodd" d="M22.4263 11.2449C17.3365 11.2449 12.8192 14.2122 10.6827 18.5351V12.2171C10.6827 11.9848 10.7074 11.831 10.5478 11.6915C10.3878 11.5522 10.2984 11.5144 10.0701 11.5144H5.86388C5.41826 11.5144 5.05291 11.5001 4.76753 11.5348C4.48184 11.5699 4.19036 11.6698 3.89307 11.8673L0.803643 13.747C0.300946 14.0255 0 14.3775 0 14.8185V19.6438C0 19.8646 0.109574 20.0563 0.229525 20.2185C0.349171 20.3813 0.54268 20.4626 0.759691 20.4626C0.759691 20.4626 0.873233 20.4449 0.980975 20.3754L3.96785 18.4703V36.5801C3.96785 36.7544 4.10459 37.0468 4.21355 37.2034C4.32191 37.36 4.60179 37.5653 4.88748 37.5653H10.0869C10.6241 37.5653 10.6827 37.0567 10.6827 36.5453V30.4302C12.8192 34.7534 17.3365 37.7204 22.4263 37.7204C29.6212 37.7204 35.4543 31.7938 35.4543 24.4828C35.4543 17.1718 29.6212 11.2449 22.4263 11.2449Z" fill="#5E20E4"/>
</g>
<path fill-rule="evenodd" clip-rule="evenodd" d="M32.6751 30.4268C31.9679 29.6623 31.4182 28.7676 31.0248 27.7423C30.6314 26.717 30.4348 25.6197 30.4348 24.4493C30.4348 23.268 30.6314 22.1618 31.0248 21.1309C31.4182 20.1 31.9679 19.2022 32.6751 18.4374C32.9715 18.1171 33.2962 17.8308 33.6387 17.5663C32.7884 16.1601 31.6868 14.9286 30.3973 13.9343C29.9703 14.2727 29.5634 14.6377 29.1779 15.0319C28.3856 15.8429 27.7043 16.7435 27.1345 17.7337C26.5643 18.7243 26.1257 19.7843 25.8178 20.9135C25.5101 22.043 25.356 23.2218 25.356 24.4493C25.356 25.6774 25.5101 26.8559 25.8178 27.9854C26.1257 29.1149 26.5643 30.169 27.1345 31.1478C27.7043 32.1269 28.3856 33.0188 29.1779 33.8236C29.586 34.2383 30.0182 34.6219 30.4733 34.9764C31.7518 33.9756 32.8442 32.741 33.6836 31.332C33.3237 31.0594 32.9846 30.7614 32.6751 30.4268Z" fill="#1BFDBF"/>
<path fill-rule="evenodd" clip-rule="evenodd" d="M33.6379 17.566C34.1125 17.1997 34.6253 16.8803 35.1881 16.6213C36.1569 16.1757 37.223 15.9524 38.3862 15.9524C39.3092 15.9524 40.184 16.0975 41.0108 16.3869C41.8373 16.6765 42.6037 17.0819 43.3109 17.6032C43.5505 17.7539 43.7553 17.8116 43.9263 17.7769C44.0978 17.7422 44.2684 17.6091 44.4396 17.3771L46.0982 14.5103C46.2236 14.2557 46.2404 14.0355 46.1495 13.85C46.0582 13.6646 45.916 13.5141 45.7219 13.3982C44.6502 12.6684 43.5044 12.1099 42.2848 11.7213C41.0648 11.3336 39.7765 11.1392 38.4201 11.1392C37.2117 11.1392 36.0516 11.2989 34.9403 11.6174C33.8287 11.9359 32.7882 12.3815 31.8191 12.955C31.3213 13.2496 30.8476 13.5768 30.3965 13.9341C31.686 14.928 32.7876 16.1599 33.6379 17.566Z" fill="white"/>
<path fill-rule="evenodd" clip-rule="evenodd" d="M46.1672 34.336L44.4739 31.4344C44.3032 31.2024 44.1348 31.0753 43.9699 31.052C43.8045 31.0288 43.5961 31.0926 43.3455 31.2431C42.6502 31.7644 41.8807 32.17 41.0368 32.4594C40.1935 32.7491 39.3096 32.8939 38.3866 32.8939C37.2234 32.8939 36.1572 32.674 35.1885 32.2333C34.6437 31.9861 34.1449 31.6816 33.6834 31.3318C32.8441 32.7404 31.7517 33.9753 30.4731 34.9761C30.9011 35.3101 31.3494 35.619 31.8195 35.8997C32.7888 36.479 33.829 36.925 34.9406 37.2376C36.0519 37.5505 37.2118 37.7068 38.4208 37.7068C39.7768 37.7068 41.0798 37.5071 42.3282 37.1073C43.5765 36.7079 44.7309 36.1428 45.7909 35.4131C45.9844 35.2974 46.1269 35.1526 46.2185 34.9789C46.3098 34.8052 46.2924 34.5909 46.1672 34.336Z" fill="white"/>
</g>
<defs>
<clipPath id="clip0">
<rect width="164" height="48" fill="white"/>
</clipPath>
</defs>
</svg>
